{"title":"Real Skateboards - Roll Forever [2005][skateboarding].avi","uid":4694372,"size":362979840,"categoryP":"video","categoryS":"movies","magnet":"?xt=urn:btih:8bbb282016114f3868da1c1a0f935ff647215663&amp;dn=Real+Skateboards+-+Roll+Forever+%5B2005%5D%5Bskateboarding%5D.avi&amp;tr=udp%3A%2F%2Ftracker.openbittorrent.com%3A80&amp;tr=udp%3A%2F%2Fopen.demonii.com%3A1337&amp;tr=udp%3A%2F%2Ftracker.coppersurfer.tk%3A6969&amp;tr=udp%3A%2F%2Fexodus.desync.com%3A6969","seeders":1,"leechers":0,"uploader":"highateus","files":1,"time":1233506605,"description":"Free promo video from Real Skateboards released in 2005.\nFeaturing:\n\nKeith Hufanagel, Max Schaaf, J.T. Aultz, Dennis Busenitz,\nDarrell Stanton, Peter Ramondetta, Damian Bravo,\nErnie Torres and Nick Dompierre.\n\n\n\nGeneral\n\nComplete name                    : Real Skateboards - Roll Forever [2005].avi\nFormat                           : AVI\nFormat/Info                      : Audio Video Interleave\nFile size                        : 346 MiB\nDuration                         : 26mn 25s\nOverall bit rate                 : 1831 Kbps\n\n\nVideo\n\nFormat                           : MPEG-4 Visual\nFormat profile                   : Streaming Video@L1\nFormat settings, BVOP            : Yes\nFormat settings, QPel            : No\nFormat settings, GMC             : No warppoints\nFormat settings, Matrix          : Default\nMuxing mode                      : Packed bitstream\nCodec ID                         : XVID\nCodec ID/Hint                    : XviD\nDuration                         : 26mn 25s\nBit rate                         : 1 627 Kbps\nWidth                            : 720 pixels\nHeight                           : 480 pixels\nDisplay aspect ratio             : 1.500\nFrame rate                       : 29.970 fps\nStandard                         : NTSC\nResolution                       : 24 bits\nColorimetry                      : 4:2:0\nScan type                        : Progressive\nBits/(Pixel*Frame)               : 0.157\nStream size                      : 308 MiB (89%)\nWriting library                  : XviD 1.1.2 (UTC 2006-11-01)\n\n\nAudio\n\nFormat                           : MPEG Audio\nFormat version                   : Version 1\nFormat profile                   : Layer 3\nCodec ID                         : 55\nCodec ID/Hint                    : MP3\nDuration                         : 26mn 25s\nBit rate mode                    : Constant\nBit rate                         : 192 Kbps\nChannel(s)                       : 2 channels\nSampling rate                    : 44.1 KHz\nResolution                       : 16 bits\nVideo delay                      : 26ms\nStream size                      : 36.3 MiB (10%)\nAlignment                        : Split accross interleaves\nInterleave, duration             : 33 ms (1.00 video frame)\nTitle                            : Audio Stream\nWriting library                  : LAME3.92","torrent":{"xt":"urn:btih:8bbb282016114f3868da1c1a0f935ff647215663","amp;dn":"Real+Skateboards+-+Roll+Forever+%5B2005%5D%5Bskateboarding%5D.avi","amp;tr":["udp%3A%2F%2Ftracker.openbittorrent.com%3A80","udp%3A%2F%2Fopen.demonii.com%3A1337","udp%3A%2F%2Ftracker.coppersurfer.tk%3A6969","udp%3A%2F%2Fexodus.desync.com%3A6969"],"infoHash":"8bbb282016114f3868da1c1a0f935ff647215663","infoHashBuffer":{"type":"Buffer","data":[139,187,40,32,22,17,79,56,104,218,28,26,15,147,95,246,71,33,86,99]},"announce":[],"urlList":[]}}